<svg xmlns="http://www.w3.org/2000/svg" viewBox="0 0 361.62 381.72"><defs><style>.cls-1{fill:#fff;}</style></defs><g id="Layer_2" data-name="Layer 2"><g id="Layer_1-2" data-name="Layer 1"><path class="cls-1" d="M220.83,102.14c-14.18-17.29-30.26-32.49-50.11-43.21-10.89-5.88-22.33-10.07-35-8.58-10.05,1.18-17.81,6-22.4,15.32q-28.5,57.8-57.1,115.55a17.49,17.49,0,0,1-5.52,6.21c-9.78,6.88-19.83,13.39-29.65,20.23C7.68,217,.43,229.78,0,246.12a49.55,49.55,0,0,0,51,50.6c8.83-.26,16.83-3.08,24.47-7.82.94,1.33,1.81,2.53,2.64,3.75q25.2,37.13,50.41,74.24c8.56,12.56,22.78,17.74,35.82,13.22,19.39-6.73,26.7-28.43,15.16-45.81-12.07-18.17-24.44-36.14-36.68-54.19l-10.61-15.7c1.48-.27,2.3-.49,3.14-.56,35.16-2.82,70.33-5.69,105.5-8.38A28.13,28.13,0,0,0,259.42,247c5.16-5.22,8-11.68,9.45-18.77,2.87-13.9,1-27.59-2.59-41C257.78,155.31,241.58,127.46,220.83,102.14ZM63.44,278.68c-15.53,8.56-33.67,2.22-43.66-14C10.69,249.9,14.09,231.08,28,221c9.77-7.09,19.9-13.69,30.2-20.74l38.53,56.72C85.54,264.34,75,272.34,63.44,278.68ZM167,341.94c3.75,5.54,4.45,11.34,1.08,17.23-3.2,5.59-8.25,8.21-14.66,7.78-5.5-.37-9.44-3.33-12.48-7.84q-24.18-35.78-48.47-71.45c-1.53-2.25-3-4.53-4.65-7,7-4.77,13.75-9.46,20.61-14,3.28-2.15,6.7-1.27,8.85,1.9Q142.12,305.29,167,341.94Zm23.73-97.14c-25.6,2-51.21,4-76.8,6.11a4.92,4.92,0,0,1-5.18-2.48q-19-28.25-38.19-56.34c-1.09-1.6-1.79-2.9-.73-5q18.89-38.17,37.57-76.45a15.88,15.88,0,0,1,.9-1.44C122.45,165,152.89,209.71,199.67,243.9,196.65,244.21,193.69,244.57,190.71,244.8ZM254,222.11c-1,5.11-2.93,9.83-6.78,13.47-4.69,4.43-10.07,6.57-16.73,5.06-12.61-2.84-23.46-9.18-33.21-17.22-35.17-29-59.65-65.23-72.23-109.23a73,73,0,0,1-2-9.12c-.62-4.19-1-8.41-1.46-12.81.28-3.2.34-6.59.9-9.89,2.3-13.58,11.78-19.79,25.2-16.61,11.77,2.79,21.83,9,31.29,16.2,21,16.06,37.21,36.32,51,58.68,10.24,16.63,18.75,34,22.92,53.27C254.87,203.22,255.79,212.63,254,222.11Z"/><path class="cls-1" d="M336.26,70c4.74-3.12,6-7.52,3.33-11.35s-6.9-4.18-11.52-1.16q-13.89,9.1-27.76,18.24c-7.28,4.78-14.59,9.51-21.83,14.35-3.26,2.18-4.49,5.51-3.27,8.71s3.65,4.94,8.35,4.93a27.12,27.12,0,0,0,4.32-2Q312.12,85.93,336.26,70Z"/><path class="cls-1" d="M354.55,148.48c-9.32-1.63-18.63-3.33-27.95-5l-31-5.54c-4.8-.16-8,2.41-8.58,6.34s2.14,7.48,6.81,8.33Q323,158,352.3,163.12a7.65,7.65,0,0,0,9.27-6.52C362.05,152.59,359.13,149.28,354.55,148.48Z"/><path class="cls-1" d="M244.26,70c4.33.43,7.61-2.26,8.18-6.81.45-3.58.78-7.17,1.15-10.76q2.29-22.27,4.57-44.55c.11-4.15-2.56-7.37-6.46-7.78a7.09,7.09,0,0,0-8.15,6.41q-2.94,27.64-5.63,55.31C237.48,66.23,240.24,69.56,244.26,70Z"/><path class="cls-1" d="M171.84,122.2c-4.46,0-11.54,2.1-18,6.19-4.13,2.61-5.43,6.83-3.29,10.49s6.39,4.67,10.73,2.27c.65-.37,1.28-.77,1.94-1.13a25.24,25.24,0,0,1,28.28,41.51c-1,.8-2,1.49-2.89,2.36a7,7,0,0,0-1.57,8.24c1.32,3,3.89,4.77,7.18,4.18a14,14,0,0,0,5.92-2.78,39.85,39.85,0,0,0,13.18-44.29C207.76,133,192.55,122.23,171.84,122.2Z"/></g></g></svg>