<svg xmlns="http://www.w3.org/2000/svg" width="294.488" height="439.99" viewBox="0 0 294.488 439.99">
  <g id="Layer_2" data-name="Layer 2" transform="translate(0.021 0.02)">
    <g id="Layer_1" data-name="Layer 1" transform="translate(-0.021 -0.02)">
      <path id="Path_11415" data-name="Path 11415" d="M147.035,235.441c0,13.309-5.423,23.863-13.309,32.2-13.493,10.793-24.1,13.3-48.2,13.3H37.32V248.761H93.43a24.185,24.185,0,0,0,3.254-.39c2.169-.575,4.632-.77,7.517-2.115,2.9-2.9,5.423-5.423,5.423-10.847,0-7.907-2.9-10.608-5.423-13.493H37.32V189.939H98.8c2.885-2.9,5.423-5.423,5.423-10.847s-2.506-7.907-5.423-10.413H37.32V136.53h53.6c16.194,0,26.8,2.506,34.71,7.907,8.287,8.287,13.493,16,13.493,29.286,0,10.792-5.423,21.4-16.194,29.688C144.529,211.145,147.035,230.43,147.035,235.441Z" transform="translate(3.183 11.582)" fill="#ffc107"/>
      <path id="Path_11416" data-name="Path 11416" d="M294.447,99.542a9.025,9.025,0,0,0-4.534-8.428q-54.158-35.089-108.25-70.3c-9.708-6.313-19.47-12.539-29.091-18.971-3.655-2.451-6.855-2.495-10.554-.087Q73.543,46.393,4.937,90.854A9.838,9.838,0,0,0,0,100.063c.13,14.968.076,29.948,0,44.916,0,3.362.6,6.367,3.829,8.092s5.846.6,8.558-1.2c5-3.254,10.077-6.508,15.717-10.087V284.36c0,7.528,2.169,9.762,9.762,9.762H175.947a24.741,24.741,0,0,0,3.916-.141,6.942,6.942,0,0,0,5.944-7.137,6.79,6.79,0,0,0-6.052-6.649,26.161,26.161,0,0,0-3.916-.174H42.12v-3.612q0-70.157-.076-140.3a5.206,5.206,0,0,1,2.668-5.022Q94.824,99.043,144.784,66.839a3.785,3.785,0,0,1,4.892,0q10.782,7.137,21.78,13.981a6.9,6.9,0,0,0,9.762-2.169c2-3.254,1.139-7.04-2.169-9.513-.521-.38-1.085-.716-1.649-1.085-7.81-5.011-15.8-9.762-23.375-15.185-4.881-3.46-8.786-3.113-13.678.065-34.71,22.518-69.593,44.808-104.411,67.174q-9.382,6-18.776,12.007c-.781.51-1.638.911-2.8,1.551-.065-1.421-.152-2.473-.152-3.514,0-7.886.152-15.749-.119-23.6-.13-3.558.955-5.629,4.035-7.593q62.879-40.61,125.529-81.6c2.723-1.768,4.458-1.735,7.148,0q63.215,41.315,126.6,82.327a5.63,5.63,0,0,1,3.037,5.488c-.174,8.309,0,16.606,0,24.947,0,1.085-.087,2.072-.152,3.634a.446.446,0,0,0,0,.119c-1.464-.868-2.549-1.486-3.59-2.169l-10.955-6.964-13.2-8.482-9.827-6.313-.2-.119c-2.668-1.66-5.423-1.909-8.092-.152-2.44,1.584-3.731,4.078-2.885,6.758a10.314,10.314,0,0,0,1.03,2.234,11.378,11.378,0,0,0,1.92,2.375,6.7,6.7,0,0,0,.868.727c4.512,3.254,9.35,6.085,13.981,9.2l3.2,2.05q0,68.025-.119,136.04a8.038,8.038,0,0,1-.076,1.085,14.545,14.545,0,0,1-5.64,9.762A9.762,9.762,0,0,1,242,281.756a13.4,13.4,0,0,1-7.593-1.855,27.515,27.515,0,0,1-2.907-1.746c-6.595-4.339-11.8-10.174-16.715-16.194a165.671,165.671,0,0,1-17.517-26.987c-2.614-4.892-4.339-9.469-2.169-15.511,2.625-7.148-4.545-14.762-11.931-14.263-9.415.673-14.025,9.187-10.847,17.279a9.23,9.23,0,0,0,6.259,6c3.71.857,5.3,3.341,6.671,6.595,5.8,13.873,13.1,26.813,23.06,38.256a74.344,74.344,0,0,0,12.767,11.714,69.813,69.813,0,0,0,7.755,4.827,29.709,29.709,0,0,0,13.754,3.807,18.7,18.7,0,0,0,12.908-4.848c6.172-5.684,8.6-12.918,9.762-20.978.8-5.532.51-11.031.521-16.541q.076-54.96,0-109.932l2.538,1.616h.065c.325.184.629.358.922.542,4.187,2.657,8.385,5.3,12.517,8.048l.5.325.51.325a8.2,8.2,0,0,0,5.836,1.443,6.791,6.791,0,0,0,2.169-.814c3.026-1.757,3.634-4.6,3.623-7.886v-2.386Q294.328,121.138,294.447,99.542Zm-110.778,122.1c-3.254,0-4.7-1.421-4.7-4.708a4.545,4.545,0,0,1,4.556-4.729,4.805,4.805,0,0,1,4.881,4.881,4.556,4.556,0,0,1-4.74,4.556Z" transform="translate(0.021 0.02)" fill="#2196f3"/>
      <path id="Path_11417" data-name="Path 11417" d="M223.937,252.852q-1.638-1.79-3.254-3.569c-7.983-8.471-13.819-18.1-16.346-29.6a11.812,11.812,0,0,1,.141-6.725,9.09,9.09,0,0,0-4.827-11.6c-.6-.3-1.237-1.085-1.942-.391s-.174,1.421.141,2.05c1.443,2.864,2.169,5.619-.26,8.428a4.718,4.718,0,0,1-7.658-.542,8.35,8.35,0,0,0-.575-1.085c-.8-.987-.694-3.254-2.386-2.831s-1.4,2.386-1.421,3.807c0,4.089,2.278,6.649,5.792,8.157a7.929,7.929,0,0,1,4.339,4.241,94.366,94.366,0,0,0,11.226,18.5,31.238,31.238,0,0,0,17.029,11.15Z" transform="translate(15.733 17.015)" fill="#ffc107"/>
      <path id="Path_11418" data-name="Path 11418" d="M243.819,280.3c-.51-1.085-1.942-.4-2.874-.174a41.976,41.976,0,0,1-24.731-.954c-10.228-3.59-18.364-10.3-25.544-18.233-2.169-2.343-4.154-4.783-6.085-7.289l-1.03-1.323h0L168.575,235l-4.339-2.614-2.907,2.506-.119.108,1.735,5,15.684,18.19.076.087a113.555,113.555,0,0,0,17.355,17.29c8.493,6.725,17.8,11.779,29.058,11.855a31.575,31.575,0,0,0,16.693-4.794C242.81,282.111,244.5,281.775,243.819,280.3Z" transform="translate(13.673 19.699)" fill="#ffc107"/>
      <path id="Path_11419" data-name="Path 11419" d="M162.595,228.893c-.933-1.085.553-2.864,1.508-3.7a8.677,8.677,0,0,1,4.588-1.714h.184c1.258-.174.889-1.985-.586-2.278a9.426,9.426,0,0,0-1.8-.152,12.745,12.745,0,0,0-8.363,2.679l-.2.163-3.785,3.254.976,1.139-2.289,1.963-.976-1.139-3.417,2.95,4.425,5.131,3.417-2.95-.976-1.139,2.267-1.963,2.961,3.417.217-.184,3.764-3.254Z" transform="translate(12.592 18.738)" fill="#ffc107"/>
      <g id="Group_9514" data-name="Group 9514" transform="translate(25.509 315.655)">
        <text id="BUNYAN" transform="translate(0.102 109.335)" fill="#ffc107" font-size="60" font-family="SegoeUI, Segoe UI"><tspan x="0" y="0">BUNYAN</tspan></text>
        <g id="Group_9513" data-name="Group 9513">
          <path id="Path_11420" data-name="Path 11420" d="M57.385,328.762a14.914,14.914,0,0,1-5.261,12,17.474,17.474,0,0,1-11.812,4.013q-8.536,0-13.168-5.987A17.2,17.2,0,0,1,23.5,327.84a16.075,16.075,0,0,1,2.169-8.352l8.536-1.79a17.355,17.355,0,0,0-2.289,8.677,10.5,10.5,0,0,0,2.31,7.083,7.669,7.669,0,0,0,6.085,2.657q8.157,0,8.157-7.354V309.986l8.97-4.762ZM39.825,306.569a4.339,4.339,0,0,1-4.642-4.632,4.436,4.436,0,0,1,1.269-3.341,4.631,4.631,0,0,1,3.373-1.237,4.436,4.436,0,0,1,3.254,1.237,4.5,4.5,0,0,1,1.237,3.341,4.61,4.61,0,0,1-1.237,3.362A4.338,4.338,0,0,1,39.825,306.569Z" transform="translate(-23.497 -290.455)" fill="#ffc107"/>
          <path id="Path_11421" data-name="Path 11421" d="M76.683,333.363a11.27,11.27,0,0,1-8.905-3.655A12.094,12.094,0,0,1,65,321.486V298.242l8.959-4.762v27.681a3,3,0,0,0,3.59,3.59H83.6v8.677Z" transform="translate(-19.983 -290.783)" fill="#ffc107"/>
          <path id="Path_11422" data-name="Path 11422" d="M79.07,330.927V322.25H89.526v8.677Z" transform="translate(-18.79 -288.347)" fill="#ffc107"/>
          <path id="Path_11423" data-name="Path 11423" d="M85.69,330.927V322.25H96.135v8.677Z" transform="translate(-18.231 -288.347)" fill="#ffc107"/>
          <path id="Path_11424" data-name="Path 11424" d="M92.3,330.927V322.25h10.445v8.677Z" transform="translate(-17.669 -288.347)" fill="#ffc107"/>
          <path id="Path_11425" data-name="Path 11425" d="M98.91,330.927V322.25h10.445v8.677Z" transform="translate(-17.111 -288.347)" fill="#ffc107"/>
          <path id="Path_11426" data-name="Path 11426" d="M105.52,330.927V322.25h10.445v8.677Z" transform="translate(-16.552 -288.347)" fill="#ffc107"/>
          <path id="Path_11427" data-name="Path 11427" d="M112.13,330.927V322.25h10.445v8.677Z" transform="translate(-15.99 -288.347)" fill="#ffc107"/>
          <path id="Path_11428" data-name="Path 11428" d="M140.932,323.765h6v8.677h-6.855a11.736,11.736,0,0,1-7.17-2.1,12.235,12.235,0,0,1-7.235,2.1H118.74v-8.677H124.8a3,3,0,0,0,3.579-3.59v-10.8l8.97-4.762v15.608a3.97,3.97,0,0,0,.77,2.777A3.807,3.807,0,0,0,140.932,323.765Zm-16.747,13.971a4.339,4.339,0,0,1,4.577,4.567,4.545,4.545,0,0,1-1.269,3.373,4.989,4.989,0,0,1-6.682,0,4.578,4.578,0,0,1-1.269-3.341,4.436,4.436,0,0,1,1.269-3.254,4.566,4.566,0,0,1,3.373-1.345Zm10.326,0a4.437,4.437,0,0,1,3.254,1.237A4.491,4.491,0,0,1,139,342.3a4.61,4.61,0,0,1-1.236,3.373,4.339,4.339,0,0,1-3.254,1.269,4.5,4.5,0,0,1-3.373-1.3,4.577,4.577,0,0,1-1.269-3.341,4.436,4.436,0,0,1,1.269-3.254A4.567,4.567,0,0,1,134.511,337.736Z" transform="translate(-15.432 -289.84)" fill="#ffc107"/>
          <path id="Path_11429" data-name="Path 11429" d="M141.71,330.927V322.25h10.445v8.677Z" transform="translate(-13.488 -288.347)" fill="#ffc107"/>
          <path id="Path_11430" data-name="Path 11430" d="M148.32,330.927V322.25h10.5v8.677Z" transform="translate(-12.926 -288.347)" fill="#ffc107"/>
          <path id="Path_11431" data-name="Path 11431" d="M154.93,330.927V322.25h10.456v8.677Z" transform="translate(-12.367 -288.347)" fill="#ffc107"/>
          <path id="Path_11432" data-name="Path 11432" d="M161.55,330.927V322.25H172v8.677Z" transform="translate(-11.805 -288.347)" fill="#ffc107"/>
          <path id="Path_11433" data-name="Path 11433" d="M196.351,324.918V333.6h-6.866a11.758,11.758,0,0,1-7.17-2.1,12.2,12.2,0,0,1-7.235,2.1h-6.92v-8.677h6.052a3,3,0,0,0,3.59-3.59v-10.8l8.959-4.762v15.608a3,3,0,0,0,3.59,3.59ZM182.2,300.188a4.339,4.339,0,0,1-4.642-4.642,4.458,4.458,0,0,1,1.269-3.341A4.61,4.61,0,0,1,182.2,291a4.436,4.436,0,0,1,3.254,1.237,4.523,4.523,0,0,1,1.237,3.341,4.631,4.631,0,0,1-1.237,3.373A4.339,4.339,0,0,1,182.2,300.188Z" transform="translate(-11.247 -290.993)" fill="#ffc107"/>
          <path id="Path_11434" data-name="Path 11434" d="M191.13,330.927V322.25h10.445v8.677Z" transform="translate(-9.303 -288.347)" fill="#ffc107"/>
          <path id="Path_11435" data-name="Path 11435" d="M197.74,330.927V322.25h10.445v8.677Z" transform="translate(-8.741 -288.347)" fill="#ffc107"/>
          <path id="Path_11436" data-name="Path 11436" d="M204.35,330.927V322.25h10.467v8.677Z" transform="translate(-8.182 -288.347)" fill="#ffc107"/>
          <path id="Path_11437" data-name="Path 11437" d="M211,330.927V322.25h10.445v8.677Z" transform="translate(-7.621 -288.347)" fill="#ffc107"/>
          <path id="Path_11438" data-name="Path 11438" d="M217.57,332.421v-8.677h6.063a3,3,0,0,0,3.579-3.59V309.372l8.97-4.762v15.945a11.053,11.053,0,0,1-11.639,11.866Zm11.5,14.524a4.339,4.339,0,0,1-4.632-4.642,4.425,4.425,0,0,1,1.269-3.33,4.61,4.61,0,0,1,3.363-1.236,4.458,4.458,0,0,1,3.254,1.236,4.534,4.534,0,0,1,1.226,3.33,4.653,4.653,0,0,1-1.226,3.373,4.393,4.393,0,0,1-3.254,1.269Z" transform="translate(-7.062 -289.84)" fill="#ffc107"/>
        </g>
      </g>
    </g>
  </g>
</svg>
