<svg xmlns="http://www.w3.org/2000/svg" width="511.508" height="258.851" viewBox="0 0 511.508 258.851">
  <g id="Layer_2" data-name="Layer 2" transform="translate(0.021 0.02)">
    <g id="Layer_1" data-name="Layer 1" transform="translate(-0.021 -0.02)">
      <path id="Path_11415" data-name="Path 11415" d="M129.79,219.894c0,11.217-4.571,20.112-11.217,27.142-11.372,9.1-20.313,11.208-40.626,11.208H37.32V231.121H84.611a20.389,20.389,0,0,0,2.743-.329,31.149,31.149,0,0,0,6.335-1.783c2.441-2.441,4.571-4.571,4.571-9.142,0-6.664-2.441-8.941-4.571-11.372H37.32v-26.95H89.136c2.432-2.441,4.571-4.571,4.571-9.142s-2.112-6.664-4.571-8.776H37.32v-27.1H82.5c13.649,0,22.589,2.112,29.254,6.664,6.984,6.984,11.372,13.484,11.372,24.683,0,9.1-4.571,18.037-13.649,25.021C127.678,199.417,129.79,215.671,129.79,219.894Z" transform="translate(-3.184 -11.698)" fill="#ffc107"/>
      <path id="Path_11416" data-name="Path 11416" d="M248.163,83.893a7.606,7.606,0,0,0-3.821-7.1Q198.7,47.216,153.106,17.541c-8.182-5.321-16.41-10.568-24.518-15.989-3.081-2.066-5.778-2.1-8.9-.073Q61.98,39.1,4.158,76.57A8.292,8.292,0,0,0,0,84.332c.11,12.616.064,25.241,0,37.856,0,2.834.5,5.366,3.227,6.82s4.927.5,7.213-1.015c4.214-2.743,8.493-5.485,13.247-8.5V239.661c0,6.344,1.828,8.228,8.228,8.228H148.288a20.851,20.851,0,0,0,3.3-.119,5.851,5.851,0,0,0,5.01-6.015,5.723,5.723,0,0,0-5.1-5.6,22.046,22.046,0,0,0-3.3-.146H35.5V232.96q0-59.129-.064-118.25a4.388,4.388,0,0,1,2.249-4.233Q79.916,83.472,122.023,56.33a3.19,3.19,0,0,1,4.123,0q9.087,6.015,18.357,11.784a5.814,5.814,0,0,0,8.228-1.828c1.682-2.743.96-5.933-1.828-8.017-.439-.32-.914-.6-1.39-.914-6.582-4.224-13.32-8.228-19.7-12.8-4.114-2.916-7.4-2.624-11.528.055-29.254,18.978-58.654,37.765-88,56.615q-7.908,5.055-15.825,10.12c-.658.43-1.38.768-2.359,1.307-.055-1.2-.128-2.084-.128-2.962,0-6.646.128-13.274-.1-19.893a6.362,6.362,0,0,1,3.4-6.4q53-34.227,105.8-68.774c2.295-1.49,3.757-1.463,6.024,0q53.279,34.821,106.7,69.387a4.745,4.745,0,0,1,2.56,4.626c-.146,7,0,14,0,21.026,0,.914-.073,1.746-.128,3.063a.376.376,0,0,0,0,.1c-1.234-.731-2.148-1.252-3.026-1.828l-9.233-5.869L212.848,97.98l-8.283-5.321-.165-.1a5.926,5.926,0,0,0-6.82-.128c-2.057,1.335-3.145,3.437-2.432,5.7a8.692,8.692,0,0,0,.868,1.883,9.589,9.589,0,0,0,1.618,2,5.647,5.647,0,0,0,.731.613c3.8,2.743,7.88,5.129,11.784,7.752l2.7,1.728q0,57.333-.1,114.657a6.776,6.776,0,0,1-.064.914,12.259,12.259,0,0,1-4.754,8.228,8.228,8.228,0,0,1-3.968,1.563,11.29,11.29,0,0,1-6.4-1.563,23.185,23.185,0,0,1-2.45-1.472c-5.558-3.657-9.946-8.575-14.088-13.649a139.632,139.632,0,0,1-14.764-22.745c-2.2-4.123-3.657-7.981-1.828-13.073,2.212-6.024-3.83-12.442-10.056-12.021-7.935.567-11.82,7.743-9.142,14.563a7.78,7.78,0,0,0,5.275,5.055c3.127.722,4.47,2.816,5.622,5.558,4.891,11.692,11.043,22.6,19.436,32.243a62.659,62.659,0,0,0,10.76,9.873,58.842,58.842,0,0,0,6.536,4.068,25.04,25.04,0,0,0,11.592,3.209,15.761,15.761,0,0,0,10.879-4.086c5.2-4.79,7.249-10.888,8.228-17.68.676-4.662.43-9.3.439-13.941q.064-46.322,0-92.653l2.139,1.362h.055c.274.155.53.3.777.457,3.529,2.24,7.067,4.47,10.55,6.783l.421.274.43.274a6.911,6.911,0,0,0,4.918,1.216,5.723,5.723,0,0,0,1.828-.686c2.551-1.481,3.063-3.876,3.053-6.646v-2.011Q248.062,102.094,248.163,83.893ZM154.8,186.8c-2.743,0-3.958-1.2-3.958-3.968a3.83,3.83,0,0,1,3.84-3.986,4.05,4.05,0,0,1,4.114,4.114,3.84,3.84,0,0,1-3.995,3.84Z" transform="translate(0.021 0.02)" fill="#2196f3"/>
      <path id="Path_11417" data-name="Path 11417" d="M217.9,244.653q-1.38-1.508-2.743-3.008c-6.728-7.14-11.647-15.258-13.777-24.948a9.955,9.955,0,0,1,.119-5.668,7.661,7.661,0,0,0-4.068-9.773c-.5-.256-1.042-.914-1.636-.329s-.146,1.2.119,1.728c1.216,2.413,1.828,4.735-.219,7.1a3.977,3.977,0,0,1-6.454-.457,7.038,7.038,0,0,0-.484-.914c-.677-.832-.585-2.743-2.011-2.386s-1.179,2.011-1.2,3.209c0,3.446,1.92,5.6,4.882,6.875a6.683,6.683,0,0,1,3.657,3.574,79.534,79.534,0,0,0,9.462,15.6,26.329,26.329,0,0,0,14.353,9.4Z" transform="translate(-15.903 -17.204)" fill="#ffc107"/>
      <path id="Path_11418" data-name="Path 11418" d="M230.834,272.77c-.43-.914-1.636-.338-2.423-.146a35.379,35.379,0,0,1-20.843-.8c-8.621-3.026-15.477-8.685-21.529-15.367-1.828-1.975-3.5-4.032-5.129-6.143l-.868-1.115h0l-12.625-14.6-3.657-2.2-2.45,2.112-.1.091,1.463,4.214,13.219,15.331.064.073a95.707,95.707,0,0,0,14.627,14.572c7.158,5.668,15,9.928,24.491,9.992a26.612,26.612,0,0,0,14.069-4.041C229.984,274.3,231.41,274.013,230.834,272.77Z" transform="translate(-13.815 -19.924)" fill="#ffc107"/>
      <path id="Path_11419" data-name="Path 11419" d="M160.37,227.659c-.786-.914.466-2.413,1.271-3.117a7.314,7.314,0,0,1,3.867-1.444h.155c1.06-.146.75-1.673-.494-1.92a7.944,7.944,0,0,0-1.518-.128,10.742,10.742,0,0,0-7.048,2.258l-.165.137-3.191,2.743.823.96-1.929,1.655-.823-.96-2.88,2.487,3.73,4.324,2.88-2.487-.823-.96,1.911-1.655,2.5,2.88.183-.155,3.172-2.743Z" transform="translate(-12.719 -18.95)" fill="#ffc107"/>
      <g id="Group_9514" data-name="Group 9514" transform="translate(270.375 76.068)">
        <text id="BUNYAN" transform="translate(0.107 112.997)" fill="#ffc107" font-size="61" font-family="SegoeUI, Segoe UI"><tspan x="0" y="0">BUNYAN</tspan></text>
        <g id="Group_9513" data-name="Group 9513" transform="translate(0 0)">
          <path id="Path_11420" data-name="Path 11420" d="M59.157,330.4a15.694,15.694,0,0,1-5.536,12.624,18.388,18.388,0,0,1-12.43,4.223q-8.983,0-13.856-6.3A18.1,18.1,0,0,1,23.5,329.434a16.915,16.915,0,0,1,2.283-8.789l8.983-1.883a18.262,18.262,0,0,0-2.408,9.131,11.049,11.049,0,0,0,2.431,7.453,8.07,8.07,0,0,0,6.4,2.8q8.583,0,8.583-7.739V310.646l9.439-5.011ZM40.678,307.051a4.565,4.565,0,0,1-4.885-4.874,4.668,4.668,0,0,1,1.335-3.515,4.874,4.874,0,0,1,3.55-1.3,4.668,4.668,0,0,1,3.424,1.3,4.737,4.737,0,0,1,1.3,3.515,4.851,4.851,0,0,1-1.3,3.538A4.565,4.565,0,0,1,40.678,307.051Z" transform="translate(-23.497 -290.094)" fill="#ffc107"/>
          <path id="Path_11421" data-name="Path 11421" d="M77.294,335.449a11.859,11.859,0,0,1-9.371-3.846A12.727,12.727,0,0,1,65,322.951v-24.46l9.428-5.011v29.128a3.162,3.162,0,0,0,3.778,3.778h6.369v9.131Z" transform="translate(-17.63 -290.642)" fill="#ffc107"/>
          <path id="Path_11422" data-name="Path 11422" d="M79.07,331.381V322.25h11v9.131Z" transform="translate(-15.638 -286.574)" fill="#ffc107"/>
          <path id="Path_11423" data-name="Path 11423" d="M85.69,331.381V322.25H96.682v9.131Z" transform="translate(-14.704 -286.574)" fill="#ffc107"/>
          <path id="Path_11424" data-name="Path 11424" d="M92.3,331.381V322.25h10.992v9.131Z" transform="translate(-13.767 -286.574)" fill="#ffc107"/>
          <path id="Path_11425" data-name="Path 11425" d="M98.91,331.381V322.25H109.9v9.131Z" transform="translate(-12.834 -286.574)" fill="#ffc107"/>
          <path id="Path_11426" data-name="Path 11426" d="M105.52,331.381V322.25h10.992v9.131Z" transform="translate(-11.9 -286.574)" fill="#ffc107"/>
          <path id="Path_11427" data-name="Path 11427" d="M112.13,331.381V322.25h10.992v9.131Z" transform="translate(-10.964 -286.574)" fill="#ffc107"/>
          <path id="Path_11428" data-name="Path 11428" d="M142.093,324.767H148.4V333.9h-7.214a12.35,12.35,0,0,1-7.545-2.214,12.875,12.875,0,0,1-7.613,2.214H118.74v-9.131h6.38a3.162,3.162,0,0,0,3.767-3.778V309.621l9.439-5.011v16.425a4.177,4.177,0,0,0,.81,2.922A4.006,4.006,0,0,0,142.093,324.767Zm-17.623,14.7a4.566,4.566,0,0,1,4.817,4.805,4.783,4.783,0,0,1-1.335,3.55,5.25,5.25,0,0,1-7.031,0,4.817,4.817,0,0,1-1.335-3.515,4.668,4.668,0,0,1,1.335-3.424,4.805,4.805,0,0,1,3.55-1.415Zm10.866,0a4.669,4.669,0,0,1,3.424,1.3,4.725,4.725,0,0,1,1.3,3.5,4.851,4.851,0,0,1-1.3,3.55,4.565,4.565,0,0,1-3.424,1.335,4.737,4.737,0,0,1-3.55-1.37,4.816,4.816,0,0,1-1.335-3.515,4.668,4.668,0,0,1,1.335-3.424A4.805,4.805,0,0,1,135.336,339.468Z" transform="translate(-10.03 -289.068)" fill="#ffc107"/>
          <path id="Path_11429" data-name="Path 11429" d="M141.71,331.381V322.25H152.7v9.131Z" transform="translate(-6.784 -286.574)" fill="#ffc107"/>
          <path id="Path_11430" data-name="Path 11430" d="M148.32,331.381V322.25h11.049v9.131Z" transform="translate(-5.847 -286.574)" fill="#ffc107"/>
          <path id="Path_11431" data-name="Path 11431" d="M154.93,331.381V322.25h11v9.131Z" transform="translate(-4.913 -286.574)" fill="#ffc107"/>
          <path id="Path_11432" data-name="Path 11432" d="M161.55,331.381V322.25h10.992v9.131Z" transform="translate(-3.976 -286.574)" fill="#ffc107"/>
          <path id="Path_11433" data-name="Path 11433" d="M197.825,326.692v9.131H190.6a12.373,12.373,0,0,1-7.545-2.214,12.84,12.84,0,0,1-7.613,2.214H168.16v-9.131h6.369a3.162,3.162,0,0,0,3.778-3.778V311.546l9.428-5.011V322.96a3.162,3.162,0,0,0,3.778,3.778Zm-14.9-26.024a4.566,4.566,0,0,1-4.885-4.885,4.691,4.691,0,0,1,1.335-3.515A4.851,4.851,0,0,1,182.93,291a4.668,4.668,0,0,1,3.424,1.3,4.759,4.759,0,0,1,1.3,3.515,4.874,4.874,0,0,1-1.3,3.55,4.566,4.566,0,0,1-3.424,1.3Z" transform="translate(-3.043 -290.993)" fill="#ffc107"/>
          <path id="Path_11434" data-name="Path 11434" d="M191.13,331.381V322.25h10.992v9.131Z" transform="translate(0.204 -286.574)" fill="#ffc107"/>
          <path id="Path_11435" data-name="Path 11435" d="M197.74,331.381V322.25h10.992v9.131Z" transform="translate(1.141 -286.574)" fill="#ffc107"/>
          <path id="Path_11436" data-name="Path 11436" d="M204.35,331.381V322.25h11.014v9.131Z" transform="translate(2.074 -286.574)" fill="#ffc107"/>
          <path id="Path_11437" data-name="Path 11437" d="M211,331.381V322.25h10.992v9.131Z" transform="translate(3.013 -286.574)" fill="#ffc107"/>
          <path id="Path_11438" data-name="Path 11438" d="M217.57,333.875v-9.131h6.38a3.162,3.162,0,0,0,3.767-3.778V309.621l9.439-5.011v16.778a11.631,11.631,0,0,1-12.247,12.487Zm12.1,15.283a4.566,4.566,0,0,1-4.874-4.885,4.657,4.657,0,0,1,1.335-3.5,4.851,4.851,0,0,1,3.538-1.3,4.691,4.691,0,0,1,3.424,1.3,4.771,4.771,0,0,1,1.29,3.5,4.9,4.9,0,0,1-1.29,3.55,4.623,4.623,0,0,1-3.424,1.335Z" transform="translate(3.944 -289.068)" fill="#ffc107"/>
        </g>
      </g>
    </g>
  </g>
</svg>
