<svg xmlns="http://www.w3.org/2000/svg" width="12.699" height="13.508" viewBox="0 0 12.699 13.508">
  <g id="Group_13416" data-name="Group 13416" transform="translate(19754.596 -2580.366)">
    <path id="Path_18661" data-name="Path 18661" d="M124.02,45.657h2.362a.2.2,0,1,0,0-.4H124.02a.2.2,0,1,0,0,.4Z" transform="translate(-19875.555 2536.3)" fill="#fff"/>
    <path id="Path_18662" data-name="Path 18662" d="M59.294,82.988h4.07a.2.2,0,0,0,0-.4h-4.07a.2.2,0,0,0,0,.4Z" transform="translate(-19812.537 2499.953)" fill="#fff"/>
    <path id="Path_18663" data-name="Path 18663" d="M63.562,120.121a.2.2,0,0,0-.2-.2h-4.07a.2.2,0,1,0,0,.4h4.07A.2.2,0,0,0,63.562,120.121Z" transform="translate(-19812.537 2463.607)" fill="#fff"/>
    <path id="Path_18664" data-name="Path 18664" d="M19.593,5l1.5,1.11a.245.245,0,0,0,.378-.276l-.292-.855a1.1,1.1,0,0,0,.935-1.087V1.1a1.1,1.1,0,0,0-1.1-1.1H16.436a1.1,1.1,0,0,0-1.1,1.1v2.8a1.1,1.1,0,0,0,1.1,1.1h3.131A.043.043,0,0,1,19.593,5Zm-3.86-1.107V1.1a.7.7,0,0,1,.7-.7h4.577a.7.7,0,0,1,.7.7v2.8a.7.7,0,0,1-.7.7.275.275,0,0,0-.261.364l.186.544-1.11-.822a.442.442,0,0,0-.261-.086H16.436A.7.7,0,0,1,15.733,3.895Z" transform="translate(-19769.934 2580.366)" fill="#fff"/>
    <path id="Path_18665" data-name="Path 18665" d="M180.839,53.331a4.251,4.251,0,0,0-4.066-1.1.2.2,0,1,0,.1.383,3.87,3.87,0,0,1,3.822,6.355,5.553,5.553,0,0,0-1.017,1.585H179.5v-.223a.523.523,0,0,0-.522-.522h-.256v-.284c0-.39.185-.517.968-2.078a.214.214,0,0,0-.175-.317.553.553,0,0,0-.422.2c-.067.069-.087.084-.139.084s-.071-.015-.139-.084a.536.536,0,0,0-.843,0c-.067.069-.087.084-.139.084s-.071-.015-.139-.084a.536.536,0,0,0-.843,0c-.067.069-.087.084-.139.084s-.071-.015-.139-.084a.553.553,0,0,0-.422-.2.215.215,0,0,0-.175.317c.793,1.58.968,1.689.968,2.078v.284h-.256a.523.523,0,0,0-.522.522v.223h-.174a5.483,5.483,0,0,0-1.013-1.579,3.875,3.875,0,0,1-1.009-2.373.2.2,0,1,0-.395.024,4.272,4.272,0,0,0,1.112,2.616,5.088,5.088,0,0,1,.929,1.44.618.618,0,0,0-.077.912.617.617,0,0,0,0,.842.618.618,0,0,0,.365,1.033.8.8,0,0,0,.8.759h2.259a.8.8,0,0,0,.8-.759.618.618,0,0,0,.365-1.033.617.617,0,0,0,0-.842.618.618,0,0,0-.075-.911,5.159,5.159,0,0,1,.934-1.448A4.265,4.265,0,0,0,180.839,53.331ZM176.61,57.8a.544.544,0,0,0,.524-.193c.067-.069.087-.084.139-.084s.071.015.139.084a.536.536,0,0,0,.843,0c.067-.069.087-.084.139-.084s.071.015.139.084a.539.539,0,0,0,.524.193c-.466.963-.731,1.2-.731,1.722v.284h-.985v-.284C177.341,59,177.077,58.763,176.61,57.8Zm-.048,2.528a.127.127,0,0,1,.126-.126h2.289a.127.127,0,0,1,.126.126v.223h-2.542Zm2.4,3.5H176.7a.4.4,0,0,1-.4-.357h3.061A.4.4,0,0,1,178.963,63.83Zm.711-.753h-3.681a.223.223,0,0,1,0-.446h3.681a.223.223,0,1,1,0,.446Zm-2.368-1.288h2.368a.223.223,0,1,1,0,.446h-3.681a.223.223,0,0,1,0-.446h.388a.2.2,0,0,0,0-.4h-.388a.223.223,0,0,1,0-.446h3.681a.223.223,0,1,1,0,.446h-2.368a.2.2,0,1,0,0,.4Z" transform="translate(-19923.996 2529.649)" fill="#fff"/>
  </g>
</svg>
