<svg xmlns="http://www.w3.org/2000/svg" width="12.936" height="13.063" viewBox="0 0 12.936 13.063">
  <g id="Group_13415" data-name="Group 13415" transform="translate(19753.104 -2631.697)">
    <g id="Group_13414" data-name="Group 13414">
      <path id="Path_18666" data-name="Path 18666" d="M101.781,135.019a2.156,2.156,0,1,1-2.156-2.156h.539v-1.078h-.539a3.234,3.234,0,1,0,3.234,3.234v-.539h-1.078Zm0,0" transform="translate(-19846.262 2504.351)" fill="#fff"/>
      <path id="Path_18667" data-name="Path 18667" d="M154.524,150.777l-.762.762,1.3,1.3,2.918-2.918-.762-.762-2.156,2.156Zm0,0" transform="translate(-19901.699 2487.562)" fill="#fff"/>
      <path id="Path_18668" data-name="Path 18668" d="M12.248,5.254V.128H9.014v1.44L6.858,0,1.469,3.92v8.065H.391v1.078H13.326V11.985H12.248ZM10.092,1.206H11.17v1.93l-1.078-.784ZM2.547,11.985V4.469L6.858,1.333,11.17,4.469v7.516Zm0,0" transform="translate(-19753.494 2631.697)" fill="#fff"/>
    </g>
  </g>
</svg>
